<?xml version="1.0" encoding="UTF-8"?>
<svg version="1.1" xmlns="http://www.w3.org/2000/svg" width="1254" height="1254">
<path d="M0 0 C413.82 0 827.64 0 1254 0 C1254 413.82 1254 827.64 1254 1254 C840.18 1254 426.36 1254 0 1254 C0 840.18 0 426.36 0 0 Z " fill="#050406" transform="translate(0,0)"/>
<path d="M0 0 C5.49444322 3.88214169 10.22280622 8.55512679 14.91357422 13.35205078 C15.58775391 14.00560547 16.26193359 14.65916016 16.95654297 15.33251953 C27.98806751 26.76794429 34.19137651 43.71909599 41.15356445 57.81689453 C41.48797546 58.4925798 41.82238647 59.16826508 42.16693115 59.86442566 C43.08215025 61.71517316 43.99442931 63.56737374 44.90649414 65.41967773 C46.36434816 68.32562408 47.9132883 71.16901553 49.49194336 74.01098633 C53.87356573 82.00348909 57.88499373 90.18461221 61.94651031 98.34275818 C63.46000781 101.38268113 64.97611544 104.42129013 66.49285889 107.45959473 C70.26120051 115.00955131 74.02520659 122.56166722 77.78924561 130.11376953 C80.97289516 136.50099271 84.15828774 142.88734107 87.3458786 149.27259827 C88.82180744 152.23082354 90.29527428 155.19026573 91.76861572 158.14978027 C96.53903497 167.7161674 101.39170195 177.22888665 106.39558029 186.67534637 C109.82654404 193.15909508 113.14405487 199.69208697 116.40629578 206.2623291 C117.36548457 208.1940045 118.32754278 210.12423076 119.29016113 212.05419922 C121.67620668 216.83934384 124.05776465 221.62671787 126.43939209 226.4140625 C128.79300788 231.14457084 131.14853425 235.87412013 133.50732422 240.60205078 C133.99547544 241.58060311 133.99547544 241.58060311 134.49348831 242.57892418 C138.76658988 251.13776636 143.11670055 259.65005134 147.60543823 268.09822083 C151.04816595 274.57799054 154.35719644 281.11894705 157.62045288 287.69064331 C158.57847938 289.61991156 159.53932798 291.54775483 160.50073242 293.4753418 C163.08331968 298.65514271 165.65958577 303.83806254 168.22998047 309.02392578 C172.44185917 317.50827811 176.80689489 325.90578554 181.20678711 334.29418945 C184.90030507 341.35660317 188.49265991 348.46452002 192.03857422 355.60205078 C195.51855581 362.60669355 199.04924455 369.57367757 202.72607422 376.47705078 C207.10184997 384.69624321 211.26655378 393.01605082 215.41357422 401.35205078 C219.82383281 410.21376245 224.26802492 419.04935576 228.91870117 427.78808594 C233.965926 437.28813741 238.854811 446.87057043 243.76269531 456.44311523 C247.5973201 463.91273586 251.49052056 471.33977832 255.51586914 478.70898438 C256.6326173 480.82076001 257.63317294 482.89538962 258.53857422 485.10205078 C259.98130128 488.51213292 261.72467155 491.5832957 263.63232422 494.75048828 C265.45353985 498.44844442 266.61005184 502.44148364 267.91357422 506.35205078 C220.72357422 506.35205078 173.53357422 506.35205078 124.91357422 506.35205078 C113.53280499 482.55589694 113.53280499 482.55589694 109.44213867 473.96557617 C105.36757314 465.4180686 101.24240536 456.90199058 96.97708321 448.44800091 C95.07552605 444.67641577 93.1836986 440.9000082 91.29586792 437.12153625 C90.95393241 436.43741018 90.6119969 435.7532841 90.2596997 435.04842693 C89.14416391 432.81638177 88.02884414 430.58422879 86.91357422 428.35205078 C86.53828536 427.60097101 86.16299649 426.84989124 85.77633524 426.07605147 C83.30297438 421.12594991 80.82993176 416.1756894 78.35697174 411.22538757 C68.12655582 390.74658658 57.89362649 370.26904213 47.65950203 349.79209423 C41.75628809 337.98051052 35.85383096 326.16854974 29.953125 314.35571289 C24.78106409 304.00158282 19.60756797 293.64817133 14.432392 283.29559785 C11.70254142 277.83460221 8.97337661 272.37326646 6.24594498 266.91106224 C3.67853804 261.76939161 1.10919428 256.62869329 -1.46155167 251.48869133 C-2.39657079 249.61838126 -3.33092104 247.7477366 -4.26449585 245.87670517 C-10.01507924 234.35282857 -15.90159458 222.9117186 -21.93433022 211.53301203 C-25.02468603 205.68284949 -28.06607981 199.80696005 -31.10400391 193.92944336 C-31.8584915 192.47153248 -32.61474874 191.01453637 -33.37255859 189.55834961 C-34.49200183 187.40693437 -35.60621465 185.25288638 -36.71923828 183.09814453 C-37.05972198 182.44623642 -37.40020569 181.79432831 -37.75100708 181.12266541 C-40.08642578 176.58027565 -40.08642578 176.58027565 -40.08642578 174.35205078 C-40.74642578 174.35205078 -41.40642578 174.35205078 -42.08642578 174.35205078 C-42.34786377 175.20919678 -42.60930176 176.06634277 -42.87866211 176.94946289 C-44.12109263 180.44971642 -45.64714597 183.52600085 -47.41064453 186.79345703 C-48.10524872 188.08999359 -48.79982747 189.38654378 -49.49438477 190.68310547 C-49.8644162 191.3696521 -50.23444763 192.05619873 -50.61569214 192.7635498 C-58.61060498 207.61121499 -66.35873064 222.58202107 -74.02392578 237.60205078 C-74.49535004 238.52470734 -74.96677429 239.44736389 -75.45248413 240.39797974 C-81.12350989 251.50038607 -86.74615355 262.6257146 -92.2933197 273.79058838 C-95.16685908 279.56209892 -98.12517631 285.28288123 -101.14892578 290.97705078 C-104.93188758 298.11032552 -108.59913839 305.29157105 -112.16088867 312.53808594 C-114.94950389 318.17893032 -117.86321609 323.74905154 -120.80126953 329.31298828 C-125.82626775 338.82942901 -130.75023695 348.39512415 -135.64892578 357.97705078 C-137.39704747 361.39271052 -139.14595727 364.80796636 -140.89501953 368.22314453 C-141.33044067 369.07352798 -141.76586182 369.92391144 -142.21447754 370.80006409 C-145.07035989 376.37543331 -147.93559642 381.94589122 -150.80908203 387.51220703 C-151.1809967 388.23268219 -151.55291138 388.95315735 -151.93609619 389.69546509 C-152.66902296 391.11514508 -153.40197339 392.53481286 -154.13494873 393.95446777 C-159.33587613 404.02840788 -164.50591071 414.11428142 -169.53778076 424.27412415 C-172.13388922 429.49662415 -174.82221223 434.66139177 -177.56298828 439.80908203 C-183.92100113 451.82471196 -189.96363487 463.99692115 -196.02392578 476.16455078 C-197.15719918 478.43613003 -198.29066174 480.70761491 -199.42431641 482.97900391 C-201.89923266 487.9385332 -204.3723847 492.89893726 -206.84385681 497.86018372 C-208.2558842 500.69188532 -209.67133884 503.52187689 -211.08642578 506.35205078 C-256.29642578 506.35205078 -301.50642578 506.35205078 -348.08642578 506.35205078 C-347.24349589 502.13740132 -346.3830074 499.58003137 -344.49658203 495.84423828 C-343.95839844 494.77302734 -343.42021484 493.70181641 -342.86572266 492.59814453 C-342.29917969 491.48568359 -341.73263672 490.37322266 -341.14892578 489.22705078 C-340.6171875 488.16873047 -340.08544922 487.11041016 -339.53759766 486.02001953 C-336.20168554 479.41076808 -332.77826785 472.85136947 -329.32080078 466.30517578 C-324.36634655 456.92302824 -319.52254259 447.48661932 -314.70452881 438.03381348 C-312.7099954 434.12065108 -310.71273984 430.20887988 -308.71569824 426.29699707 C-307.68407228 424.27614965 -306.65257817 422.25523491 -305.62121582 420.23425293 C-299.72365144 408.67858824 -293.80794583 397.13223282 -287.89111328 385.58642578 C-287.03303194 383.91195093 -286.17495903 382.23747176 -285.31689453 380.56298828 C-284.89266205 379.73514832 -284.46842957 378.90730835 -284.03134155 378.05438232 C-281.29313528 372.71012123 -278.55819207 367.36420128 -275.82531738 362.01721191 C-273.93108638 358.31123362 -272.03591025 354.605739 -270.14068604 350.90026855 C-269.24727602 349.1528666 -268.35431272 347.40523615 -267.46185303 345.65734863 C-263.36242189 337.62891149 -259.24970164 329.61232122 -254.98095703 321.67236328 C-251.25633917 314.736406 -247.72443149 307.71362711 -244.23034668 300.65924072 C-240.57030299 293.27724779 -236.88436281 285.90806035 -233.20556641 278.53540039 C-232.21233102 276.54389852 -231.2198137 274.55203835 -230.22802734 272.55981445 C-224.82837626 261.71500961 -219.36943551 250.91252747 -213.69451904 240.20895386 C-209.31294067 231.9290191 -205.13132512 223.55254063 -200.96142578 215.16455078 C-200.20771532 213.65208341 -199.45380899 212.13971362 -198.69970703 210.62744141 C-197.21593899 207.65118424 -195.73273023 204.67464984 -194.25024414 201.69775391 C-193.71244827 200.6178418 -193.71244827 200.6178418 -193.16378784 199.51611328 C-192.44715199 198.0766299 -191.73078114 196.63701456 -191.01467896 195.19726562 C-186.85118381 186.82827679 -182.63326661 178.49628455 -178.27392578 170.22705078 C-173.77327489 161.64960921 -169.39832052 153.01769872 -165.09106445 144.34179688 C-161.77720408 137.68544151 -158.34344386 131.10108204 -154.85546875 124.53466797 C-151.67198362 118.51932526 -148.61303235 112.44764595 -145.58642578 106.35205078 C-142.19097549 99.51366969 -138.73231284 92.71887195 -135.14892578 85.97705078 C-131.34754609 78.82365578 -127.69124584 71.60639295 -124.08642578 64.35205078 C-119.24070964 54.61261045 -114.31992617 44.92175786 -109.15771484 35.34570312 C-108.19193437 33.54840062 -107.24355954 31.7417714 -106.29736328 29.93408203 C-96.15273111 11.351616 -77.89635706 -3.99826828 -57.72705078 -10.57763672 C-37.95857218 -15.88244066 -16.78964702 -10.95159066 0 0 Z " fill="#005AD9" transform="translate(892.08642578125,516.64794921875)"/>
<path d="M0 0 C1.04623504 0.00092179 2.09247007 0.00184359 3.1704092 0.00279331 C4.96468601 0.00073132 4.96468601 0.00073132 6.79521084 -0.00137234 C8.13279653 0.00216726 9.47038198 0.00580208 10.80796719 0.00952244 C12.20711166 0.00980431 13.60625627 0.00964658 15.00540066 0.00907993 C18.81515014 0.00879195 22.62486841 0.01468885 26.43461061 0.02165389 C30.41179863 0.02788724 34.38898731 0.02849121 38.36617947 0.0296793 C45.90267094 0.03279267 53.43914798 0.04100614 60.97563308 0.05102879 C69.55348383 0.06218974 78.13133525 0.06770033 86.70919144 0.07272422 C104.35923101 0.08318875 122.00925712 0.1007883 139.65928555 0.12304783 C138.80730269 3.85478778 137.36271024 6.88676862 135.59678555 10.29492283 C135.28955059 10.88978992 134.98231564 11.48465702 134.66577053 12.09755039 C133.66816593 14.0251198 132.66402681 15.94919005 131.65928555 17.87304783 C130.96969438 19.2007365 130.28016005 20.5284547 129.59068203 21.85620213 C125.74800209 29.2358846 121.81357912 36.55146347 117.67002773 43.7670908 C114.06472497 50.07723149 110.85660691 56.57412778 107.65489101 63.09570408 C107.32634121 63.76472752 106.9977914 64.43375095 106.65928555 65.12304783 C106.2804623 65.89519627 105.90163906 66.6673447 105.51133633 67.46289158 C102.51165214 73.52631014 99.31277525 79.45671152 96.03428555 85.37304783 C91.43420151 93.73573547 87.03996621 102.17625477 82.84043789 110.74707127 C79.98360297 116.55676918 77.00433916 122.2941349 73.97959805 128.01757908 C68.61325769 138.17236656 63.37797956 148.39178762 58.15928555 158.62304783 C53.0690169 168.60252985 47.96876763 178.57414541 42.7335043 188.47851658 C37.04417954 199.24541602 31.50391331 210.08724471 25.97178555 220.93554783 C25.44937283 221.95886204 24.92696011 222.98217625 24.3887167 224.03649998 C17.40678884 237.71395585 10.45877621 251.40715073 3.65269375 265.17309666 C0.54401363 271.44091468 -2.66414142 277.64603224 -5.94227695 283.82617283 C-12.29179747 295.81610716 -18.30293958 307.97407985 -24.34071445 320.12304783 C-30.70516172 332.92933287 -37.07119037 345.72405087 -43.77784824 358.35522556 C-47.86761971 366.07364437 -51.76209096 373.8856194 -55.64341831 381.71041965 C-61.9924572 394.50413841 -68.40043854 407.25414966 -75.13221836 419.85156345 C-77.60096357 424.49180698 -80.03246438 429.15162174 -82.46571445 433.81054783 C-82.9764249 434.78822117 -83.48713535 435.76589451 -84.01332188 436.77319431 C-87.25469104 442.99496383 -90.42291427 449.24832759 -93.53773594 455.53418064 C-96.42813951 461.34679207 -99.45377549 467.08229313 -102.54383945 472.79101658 C-103.59546778 474.74110127 -104.63347097 476.6988611 -105.63758945 478.67382908 C-114.85796066 496.4514626 -130.64844111 508.887356 -149.46571445 515.06054783 C-151.74980405 515.77281678 -154.04052104 516.46463866 -156.34071445 517.12304783 C-156.98266758 517.32414158 -157.6246207 517.52523533 -158.28602695 517.73242283 C-177.32900291 521.35276046 -196.50422655 514.6516383 -212.21571445 504.21289158 C-223.30762319 495.77264228 -231.04770021 485.41505843 -237.34071445 473.12304783 C-237.81380039 472.20040134 -238.28688633 471.27775486 -238.7743082 470.32714939 C-244.961925 458.19494563 -250.92535872 445.96053768 -256.75404453 433.65258884 C-261.31485968 424.07528172 -266.08196474 414.60297001 -270.84071445 405.12304783 C-276.31611271 394.21215237 -281.76299255 383.29597428 -286.98475742 372.26074314 C-292.54886601 360.52206377 -298.28600456 348.86683478 -303.99867344 337.19995213 C-308.18525909 328.64361674 -312.3489238 320.07633065 -316.45790195 311.48242283 C-317.04464191 310.26549747 -317.04464191 310.26549747 -317.64323521 309.02398777 C-320.34071445 303.35449926 -320.34071445 303.35449926 -320.34071445 301.12304783 C-321.00071445 301.12304783 -321.66071445 301.12304783 -322.34071445 301.12304783 C-322.57277088 300.51641804 -322.80482731 299.90978825 -323.04391575 299.28477573 C-325.46600284 293.07702889 -328.21115561 287.12810739 -331.2274332 281.18945408 C-331.68874134 280.27203938 -332.15004948 279.35462467 -332.62533665 278.40940952 C-334.08911027 275.49949551 -335.55822324 272.59232518 -337.02821445 269.68554783 C-338.95166398 265.87579348 -340.87237326 262.06467629 -342.7899332 258.25195408 C-343.26196171 257.31348637 -343.73399021 256.37501865 -344.22032261 255.40811253 C-347.63294518 248.59740866 -350.92251547 241.73546532 -354.16224766 234.84118748 C-357.38289767 227.99811696 -360.74395053 221.2331934 -364.15168858 214.48175144 C-368.26744197 206.31721728 -372.35351524 198.13767145 -376.44838047 189.96264744 C-377.57883877 187.70674933 -378.71001591 185.45121129 -379.84193516 183.19604588 C-386.592585 169.74476554 -393.23288224 156.25125689 -399.69789219 142.66040134 C-404.04586059 133.52835768 -408.51196589 124.45381787 -412.96571445 115.37304783 C-413.94691894 113.37056654 -414.92803648 111.36804264 -415.90907383 109.36547947 C-417.97454676 105.14976786 -420.04069276 100.93438704 -422.10731602 96.71923923 C-424.88425648 91.05495391 -427.65921929 85.3897021 -430.43357944 79.72415257 C-432.68905441 75.11834828 -434.94508689 70.51281724 -437.20124912 65.90734959 C-438.28151393 63.70209883 -439.36163623 61.49677826 -440.44160557 59.29138279 C-441.95948871 56.19202285 -443.47820914 53.0930742 -444.99696445 49.99414158 C-445.46693851 49.03363895 -445.93691257 48.07313633 -446.42112827 47.08352757 C-448.45719512 42.92900336 -450.50395393 38.78203007 -452.6102457 34.66259861 C-452.94455601 34.00663197 -453.27886631 33.35066532 -453.62330723 32.6748209 C-454.48124081 30.99854186 -455.34710761 29.32632927 -456.21376133 27.65454197 C-457.34071445 25.12304783 -457.34071445 25.12304783 -457.34071445 22.12304783 C-447.70246847 19.78864255 -438.16625494 19.84897526 -428.32508945 19.89257908 C-426.56128029 19.89305514 -424.79747074 19.89272145 -423.03366184 19.89163303 C-417.38594058 19.89189346 -411.7383833 19.91297942 -406.09071445 19.93554783 C-404.16012204 19.94211656 -402.22952917 19.94855557 -400.29893589 19.95486546 C-392.62235043 19.98087355 -384.94579909 20.0096209 -377.26928806 20.05265903 C-367.86152523 20.10460752 -358.45638343 20.12459872 -349.04869175 20.05812168 C-344.64090505 20.03213179 -340.2337431 20.0397142 -335.82594395 20.0589304 C-333.89319275 20.05999998 -331.96036805 20.04594782 -330.02784824 20.01602268 C-316.07502947 19.81286673 -316.07502947 19.81286673 -312.06556797 22.84179783 C-310.40165641 25.20297501 -309.38345238 27.43350836 -308.34071445 30.12304783 C-307.4828409 31.75627238 -306.61414798 33.38385531 -305.7352457 35.00586033 C-304.86779912 36.74990553 -304.00739985 38.49746948 -303.15321445 40.24804783 C-302.68182041 41.20251804 -302.21042637 42.15698826 -301.72474766 43.14038181 C-297.50266762 51.71847601 -293.37844619 60.34351944 -289.2743082 68.97851658 C-287.22544005 73.2834418 -285.1522271 77.57566664 -283.0633707 81.86132908 C-276.24639908 95.85885707 -269.63690757 109.9313173 -263.22840977 124.12060642 C-262.59403026 125.52509343 -261.95958946 126.92955276 -261.32508945 128.33398533 C-261.00582493 129.04066349 -260.6865604 129.74734165 -260.35762119 130.4754343 C-256.40312565 139.21485228 -252.36915573 147.91754237 -248.34071445 156.62304783 C-242.81797231 168.56193619 -237.33026809 180.51536323 -231.90321445 192.49804783 C-225.90358747 205.74326118 -219.80707753 218.94214404 -213.68086338 232.1292429 C-208.494613 243.29341388 -203.34536503 254.47302869 -198.24824619 265.67816257 C-191.37709303 280.78276699 -184.33228783 295.7997232 -177.19007969 310.77807713 C-176.82170994 311.55154987 -176.45334019 312.32502262 -176.07380772 313.12193394 C-175.38935139 314.55847445 -174.70370111 315.99444703 -174.01655674 317.42970371 C-173.55282658 318.40277721 -173.55282658 318.40277721 -173.07972813 319.39550877 C-172.81488117 319.94946323 -172.55003422 320.5034177 -172.2771616 321.07415867 C-170.90946491 324.0665955 -169.63396273 327.0978339 -168.34071445 330.12304783 C-159.76271522 314.67621251 -151.65455684 299.03531554 -143.77015781 283.22485447 C-142.56491228 280.81543962 -141.35935228 278.40618441 -140.15341282 275.99711704 C-137.24841099 270.19209437 -134.34760732 264.38498423 -131.44832986 258.57710082 C-128.05579137 251.78151136 -124.658968 244.98806668 -121.26203079 238.19467526 C-115.19178693 226.05468558 -109.12537972 213.91278289 -103.06117344 201.76977634 C-97.20697465 190.04729793 -91.34998129 178.32622147 -85.48988438 166.60669041 C-85.12886904 165.88469969 -84.76785371 165.16270898 -84.39589851 164.41883976 C-83.85521465 163.33753257 -83.85521465 163.33753257 -83.30360788 162.23438078 C-76.58839109 148.80464115 -69.8758197 135.37358076 -63.16445256 121.94191693 C-60.81064441 117.23131335 -58.456077 112.52108975 -56.10125637 107.81099224 C-53.2225409 102.05287145 -50.34537863 96.29397734 -47.47001713 90.53418095 C-46.00931649 87.60823601 -44.54784114 84.68268325 -43.08502674 81.75779438 C-36.52990781 68.64961519 -30.08232923 55.49851795 -23.79557228 42.25937653 C-20.2522129 34.81251318 -16.57155433 27.43393565 -12.87538242 20.06201267 C-11.67716172 17.67112091 -10.48343423 15.27801732 -9.2899332 12.88476658 C-8.52326373 11.35208561 -7.75634734 9.81952812 -6.98915195 8.28711033 C-6.63509281 7.57696781 -6.28103367 6.86682529 -5.91624546 6.13516331 C-2.91058106 0.15300486 -2.91058106 0.15300486 0 0 Z " fill="#FCFBFC" transform="translate(635.3407144546509,505.8769521713257)"/>
<path d="M0 0 C4.28896758 1.54243614 6.43519408 4.79430154 9.0625 8.3125 C10.0291485 9.57582951 10.99795975 10.83750663 11.96875 12.09765625 C12.46503906 12.74234863 12.96132812 13.38704102 13.47265625 14.05126953 C15.92649346 17.18210851 18.48562833 20.22018447 21.0625 23.25 C21.5272876 23.79825439 21.9920752 24.34650879 22.47094727 24.91137695 C25.64477318 29.2279432 25.64477318 29.2279432 30.18847656 31.25463867 C37.17663697 31.19213164 43.86420388 30.48098876 50.75 29.3125 C52.36865967 29.04457642 52.36865967 29.04457642 54.02001953 28.77124023 C75.86252371 25.06390929 97.44487883 19.97010281 118.484375 13.015625 C122.03920213 11.98867494 125.33531279 11.43224516 129 11 C128.61328125 11.44730469 128.2265625 11.89460938 127.828125 12.35546875 C127.04695313 13.26232422 127.04695313 13.26232422 126.25 14.1875 C125.69570312 14.83074219 125.14140625 15.47398437 124.5703125 16.13671875 C123.37606583 17.55377264 122.2369065 19.017458 121.125 20.5 C118.0831609 24.07863423 114.57520497 26.96596938 111 30 C109.66001953 31.18916016 109.66001953 31.18916016 108.29296875 32.40234375 C70.71889117 65.48987169 21.45640083 87.67940204 -28 95 C-28.99338379 95.14953125 -29.98676758 95.2990625 -31.01025391 95.453125 C-47.54651032 97.82018438 -63.94576907 98.28759558 -80.625 98.3125 C-82.09477295 98.31787781 -82.09477295 98.31787781 -83.59423828 98.32336426 C-102.14544881 98.35994367 -102.14544881 98.35994367 -110.47070312 96.51928711 C-115.72396083 95.44074665 -121.10403816 95.12580647 -126.4375 94.625 C-147.19814831 92.55950711 -167.75395413 89.44994792 -188.3125 85.9375 C-189.40162689 85.75167862 -189.40162689 85.75167862 -190.51275635 85.56210327 C-197.79713171 84.31402447 -205.05555363 83.00450075 -212.29296875 81.50390625 C-217.93623126 80.35537894 -223.57780695 79.43709639 -229.27734375 78.6171875 C-241.77077635 76.80964537 -254.15781464 74.45475634 -266.5625 72.125 C-268.84434002 71.69889185 -271.12624092 71.27310959 -273.40820312 70.84765625 C-277.96522858 69.99760284 -282.52202326 69.14632972 -287.07861328 68.29394531 C-294.20676911 66.96102266 -301.33531133 65.63022883 -308.46484375 64.3046875 C-310.08647179 64.00185349 -310.08647179 64.00185349 -311.74085999 63.69290161 C-318.81461982 62.37958718 -325.9007743 61.16698131 -333 60 C-334.6283313 59.72693017 -336.25651464 59.45297607 -337.88452148 59.17797852 C-342.1546366 58.45736822 -346.42524853 57.7397546 -350.69604492 57.02319336 C-352.50771852 56.71874701 -354.31924507 56.41342425 -356.13061523 56.10717773 C-366.9848762 54.27291937 -377.84099552 52.53331635 -388.75108337 51.06117249 C-393.7884737 50.36891735 -398.7440582 49.46987683 -403.7240448 48.44508362 C-406.57879573 47.88681126 -409.42796096 47.52215353 -412.3203125 47.21875 C-413.4340625 47.09886719 -414.5478125 46.97898437 -415.6953125 46.85546875 C-416.82710937 46.73816406 -417.95890625 46.62085938 -419.125 46.5 C-430.32503938 45.31487955 -441.49639262 43.96118113 -452.66699219 42.53027344 C-506.5040668 35.65652387 -559.96563476 32.83946978 -614.22129059 32.75502014 C-616.94048588 32.75010752 -619.65965885 32.74220293 -622.37884521 32.73376465 C-641.98439954 32.68153658 -661.53727329 32.96006845 -681.12109375 33.9296875 C-681.96260483 33.97118675 -682.80411591 34.012686 -683.67112732 34.05544281 C-705.45954345 35.15459101 -727.04073466 37.20552756 -748.53125 41.05078125 C-751.87996439 41.64818539 -755.21849735 42.18356217 -758.59375 42.60546875 C-770.4795554 44.10905596 -782.04107702 46.74068136 -793.6875 49.5 C-794.52468567 49.69749847 -795.36187134 49.89499695 -796.22442627 50.09848022 C-806.8259109 52.55698494 -806.8259109 52.55698494 -817.234375 55.70703125 C-820.70845982 56.89989647 -823.93799682 57.64590757 -827.5625 58.1875 C-828.59503906 58.34605469 -829.62757813 58.50460937 -830.69140625 58.66796875 C-831.45324219 58.77753906 -832.21507812 58.88710938 -833 59 C-791.5750437 23.4611635 -706.46783247 19.18703026 -654.6965332 13.4453125 C-653.25861362 13.28527012 -651.82070661 13.1251148 -650.3828125 12.96484375 C-649.67089752 12.88587357 -648.95898254 12.80690338 -648.22549438 12.72554016 C-643.73507846 12.2197033 -639.26628021 11.61928142 -634.79296875 10.9765625 C-624.96338418 9.6440125 -615.08263828 9.06721217 -605.1875 8.4375 C-603.18269544 8.3062001 -601.17789403 8.17485209 -599.1730957 8.04345703 C-587.34163002 7.27931113 -575.51560542 6.62083876 -563.6628418 6.29077148 C-562.74672119 6.26442627 -561.83060059 6.23808105 -560.88671875 6.2109375 C-560.12576904 6.19337402 -559.36481934 6.17581055 -558.58081055 6.15771484 C-556.48908091 6.02988802 -554.40478899 5.78416794 -552.32807922 5.50318909 C-548.27546447 4.99065286 -544.25225981 4.82611874 -540.16992188 4.79125977 C-539.42356444 4.7816261 -538.67720701 4.77199244 -537.90823269 4.76206684 C-535.42842657 4.73254509 -532.94865297 4.71108026 -530.46875 4.69140625 C-529.59605532 4.68373356 -528.72336063 4.67606087 -527.82422066 4.66815567 C-521.04952798 4.61119589 -514.27489808 4.58115727 -507.5 4.5625 C-506.49278271 4.55949009 -505.48556541 4.55648018 -504.44782639 4.55337906 C-433.24746896 4.37791227 -361.81546668 9.30666071 -291.13902283 17.90812683 C-282.43362701 18.96278377 -273.72010901 19.89491307 -264.9944458 20.76391602 C-260.80825643 21.18101451 -256.6228687 21.60600644 -252.4375 22.03125 C-251.61480621 22.11475708 -250.79211243 22.19826416 -249.94448853 22.28430176 C-243.16582951 22.97572788 -236.39487081 23.72736325 -229.625 24.5 C-218.95719173 25.70713789 -208.27920414 26.80155927 -197.59539795 27.85620117 C-195.81603235 28.03201787 -194.03677114 28.20889521 -192.25762939 28.38696289 C-182.75013607 29.33632943 -173.25868045 30.15818455 -163.7172699 30.67424011 C-159.40594883 30.90859064 -155.12000145 31.22267797 -150.82745361 31.68490601 C-121.9800907 34.73378134 -93.30424485 35.27768494 -64.3270874 35.1373291 C-59.53187911 35.1164169 -54.73664753 35.10764115 -49.94140625 35.09765625 C-40.62754603 35.07656792 -31.31378459 35.04269802 -22 35 C-21.79093018 33.61482178 -21.79093018 33.61482178 -21.57763672 32.20166016 C-19.4167276 20.22441497 -11.34773028 11.25468233 -3 3 C-2.09507812 2.09314453 -2.09507812 2.09314453 -1.171875 1.16796875 C-0.78515625 0.78253906 -0.3984375 0.39710938 0 0 Z " fill="#0059D6" transform="translate(1014,378)"/>
<path d="M0 0 C413.82 0 827.64 0 1254 0 C1254 413.82 1254 827.64 1254 1254 C840.18 1254 426.36 1254 0 1254 C0 840.18 0 426.36 0 0 Z M70 37 C69.08089844 37.69480469 68.16179687 38.38960937 67.21484375 39.10546875 C50.07864539 52.5570059 35.68173079 69.02404423 25 88 C24.60425781 88.69722168 24.20851563 89.39444336 23.80078125 90.11279297 C5.75785993 122.20837415 1.06037144 154.03245064 1.24779876 190.29444044 C1.26597561 195.12943659 1.24874855 199.96434192 1.23633629 204.7993387 C1.21939849 213.24560801 1.22441513 221.69163424 1.2443924 230.13789368 C1.27401659 242.69779064 1.26890455 255.25751193 1.25714151 267.81742982 C1.23837188 288.95672996 1.24776681 310.09592936 1.27392387 331.23521805 C1.29981187 352.16198283 1.31448329 373.08870233 1.31392097 394.01548386 C1.31389804 395.31965826 1.3138751 396.62383267 1.31385147 397.96752751 C1.31372874 403.26204661 1.31353189 408.5565657 1.31323403 413.85108479 C1.31242427 428.64805508 1.31356659 443.44502479 1.31620121 458.24199486 C1.31632023 458.91563005 1.31643924 459.58926524 1.31656186 460.28331362 C1.32048184 481.72688581 1.33298178 503.17044382 1.35177517 524.61400795 C1.35238399 525.30885751 1.3529928 526.00370706 1.35362007 526.71961267 C1.36354488 538.00175852 1.37403144 549.28390386 1.38454622 560.56604918 C1.42623189 605.33066441 1.44614431 650.09522861 1.4440918 694.85986328 C1.44403063 696.27563188 1.44396999 697.69140047 1.44390988 699.10716906 C1.44378933 701.93539161 1.44366702 704.76361416 1.44354355 707.5918367 C1.44326928 713.93378918 1.44301622 720.27574167 1.44280379 726.61769415 C1.44275648 728.02244572 1.44270716 729.42719728 1.44265581 730.83194884 C1.44131921 768.38065892 1.45474954 805.92936188 1.4737125 843.4780668 C1.47437332 844.78893099 1.47503413 846.09979519 1.47571497 847.45038253 C1.47837956 852.72132653 1.48104478 857.99227053 1.48378784 863.26321449 C1.49325921 881.58543995 1.49779451 899.90766059 1.49912231 918.22988833 C1.5009146 941.8358206 1.51291882 965.44171258 1.54241668 989.04762764 C1.55774134 1001.52599084 1.56499656 1014.00429495 1.56042813 1026.48266709 C1.55822034 1034.82238984 1.56696945 1043.16205524 1.58455956 1051.50175961 C1.59428152 1056.24979691 1.59940303 1060.99771067 1.59127777 1065.74575384 C1.58397735 1070.07480959 1.59072058 1074.40361955 1.60813211 1078.73264437 C1.61199576 1080.27946095 1.61099038 1081.82630047 1.60418229 1083.37310689 C1.54052876 1099.11746164 3.93189476 1114.11348042 8.75 1129.125 C9.10143066 1130.23609131 9.45286133 1131.34718262 9.81494141 1132.49194336 C17.90392215 1157.54445356 30.85203213 1178.91519014 49 1198 C49.55397461 1198.59184082 50.10794922 1199.18368164 50.67871094 1199.79345703 C60.24997586 1209.96514275 70.15316957 1218.58101608 82 1226 C82.70318359 1226.44037598 83.40636719 1226.88075195 84.13085938 1227.33447266 C99.25823022 1236.61780659 115.82369957 1243.29698266 132.9375 1247.9375 C133.62062256 1248.12481689 134.30374512 1248.31213379 135.00756836 1248.50512695 C148.00125167 1251.76383121 161.24478763 1252.29621635 174.56478596 1252.25447559 C176.17737702 1252.25687166 177.78996697 1252.26014082 179.40255472 1252.26419219 C183.80553462 1252.27275045 188.20842845 1252.26901166 192.61140952 1252.26313647 C197.41238519 1252.25894505 202.21334576 1252.26638002 207.01431769 1252.27228898 C215.41945786 1252.28103341 223.82457367 1252.28236935 232.22971725 1252.27878571 C244.72877374 1252.27347068 257.2278067 1252.27958204 269.72686062 1252.28786864 C293.35019745 1252.30310015 316.97352355 1252.3048146 340.59686426 1252.30234561 C358.83955295 1252.30051223 377.08223813 1252.3022735 395.32492638 1252.30657005 C397.94678018 1252.30717246 400.56863399 1252.30777365 403.1904878 1252.30837366 C407.14146837 1252.30928092 411.09244894 1252.31018959 415.0434295 1252.31110601 C451.77219007 1252.31953423 488.5009492 1252.32389084 525.22971058 1252.31969929 C526.26760891 1252.3195822 526.26760891 1252.3195822 527.32647489 1252.31946275 C535.04178239 1252.31859 542.75708988 1252.31766073 550.47239736 1252.31671212 C551.51721179 1252.31658385 551.51721179 1252.31658385 552.58313358 1252.316453 C556.80842994 1252.31593421 556.80842994 1252.31593421 561.0337263 1252.31541077 C605.58539926 1252.30987519 650.13705149 1252.31741793 694.6887207 1252.33618164 C705.91530001 1252.34090408 717.14187933 1252.34558468 728.36845875 1252.3500185 C729.40543693 1252.35042848 729.40543693 1252.35042848 730.46336417 1252.35084675 C751.77880992 1252.35922132 773.09425396 1252.36389801 794.40970135 1252.36472607 C795.07915604 1252.36475243 795.74861073 1252.3647788 796.43835192 1252.36480596 C811.79561203 1252.36537108 827.15287194 1252.36485858 842.51013201 1252.36360615 C847.76463012 1252.36321081 853.01912822 1252.36284927 858.27362633 1252.36250877 C859.56739644 1252.36241804 860.86116654 1252.36232731 862.19414181 1252.36223383 C881.71823227 1252.36106824 901.24231015 1252.36771323 920.76639748 1252.37832069 C942.9719238 1252.39037275 965.17742241 1252.39193151 987.38294915 1252.37953053 C999.80550314 1252.37290332 1012.22799086 1252.37452987 1024.65053955 1252.38811904 C1032.95475107 1252.39636954 1041.25891299 1252.39365815 1049.56312049 1252.38214377 C1054.29027732 1252.37589342 1059.01730493 1252.3742709 1063.74445424 1252.38600711 C1089.53406839 1252.62865197 1089.53406839 1252.62865197 1115 1249 C1116.08732148 1248.76306327 1117.17464297 1248.52612653 1118.29491359 1248.2820099 C1120.86874822 1247.6976005 1123.39853775 1247.03248543 1125.9375 1246.3125 C1126.84516113 1246.05831299 1127.75282227 1245.80412598 1128.68798828 1245.54223633 C1170.6074081 1233.39963345 1207.22950087 1206.09622968 1228.8125 1167.875 C1230.24203186 1165.26692753 1231.63174787 1162.64067064 1233 1160 C1233.53109375 1158.98035156 1234.0621875 1157.96070313 1234.609375 1156.91015625 C1247.16283413 1131.22955841 1252.17023903 1104.536424 1252.12863445 1076.15418816 C1252.12998286 1074.5587584 1252.13176774 1072.96332897 1252.13394669 1071.36790013 C1252.13866128 1066.98929119 1252.13718002 1062.61070313 1252.13466892 1058.23209318 C1252.13303262 1053.46623824 1252.13717936 1048.70038771 1252.14057809 1043.93453419 C1252.14572828 1035.58336184 1252.14714995 1027.23219528 1252.14612198 1018.8810215 C1252.14459705 1006.46223904 1252.14875882 994.043463 1252.1539966 981.62468179 C1252.16366913 958.15381051 1252.16648081 934.68294141 1252.16705366 911.21206836 C1252.16751315 893.08699748 1252.1695712 874.96192745 1252.17275429 856.83685684 C1252.17365183 851.62015156 1252.17454164 846.40344628 1252.17542917 841.18674099 C1252.17576074 839.24142452 1252.17576074 839.24142452 1252.17609901 837.25680873 C1252.18225349 800.77633318 1252.18620544 764.29585807 1252.18575573 727.815382 C1252.18573995 726.42600017 1252.18572422 725.03661834 1252.18570852 723.64723651 C1252.18563514 717.3744784 1252.18554697 711.10172029 1252.18545464 704.82896217 C1252.18541351 702.03185653 1252.18537337 699.2347509 1252.18533332 696.43764526 C1252.18531293 695.03764441 1252.18529191 693.63764357 1252.18527026 692.23764273 C1252.1845901 647.97320372 1252.1919064 603.70877271 1252.20581055 559.44433594 C1252.20931167 548.2923171 1252.21278118 537.14029825 1252.21607494 525.98827934 C1252.21627782 525.30157109 1252.21648069 524.61486283 1252.21668971 523.90734524 C1252.22290654 502.73592475 1252.22667063 481.56450493 1252.22793293 460.39308357 C1252.22797288 459.72819775 1252.22801283 459.06331193 1252.22805399 458.37827806 C1252.22894563 443.12612269 1252.22913699 427.87396737 1252.22884732 412.62181199 C1252.22877269 407.40322057 1252.22872399 402.18462916 1252.22869301 396.96603775 C1252.22868135 395.68108235 1252.2286697 394.39612695 1252.22865769 393.0722335 C1252.22862692 372.39391419 1252.2350128 351.71560164 1252.24362527 331.03728434 C1252.25210197 310.25512073 1252.25309156 289.472967 1252.24651595 268.69080262 C1252.24282045 256.34562895 1252.2446527 244.00048532 1252.25445829 231.65531484 C1252.26045749 223.40506017 1252.25916347 215.15482724 1252.25198779 206.90457357 C1252.24810582 202.20652481 1252.24733204 197.50853418 1252.25544515 192.81048952 C1252.26277602 188.5277915 1252.2607269 184.24519948 1252.25152128 179.96250601 C1252.24981457 178.43128542 1252.25137992 176.90005632 1252.25682249 175.36884445 C1252.38405498 136.96946528 1239.95635676 97.67647252 1215 68 C1214.13387349 66.94941747 1213.26800813 65.8986196 1212.40234375 64.84765625 C1183.44037477 29.91788858 1142.30781756 7.0691758 1097 2 C1091.59519044 1.73298157 1086.2008572 1.72868254 1080.79153347 1.74552441 C1079.1810361 1.74313024 1077.57053983 1.73986228 1075.96004578 1.73580781 C1071.54888615 1.72722332 1067.13781208 1.73099944 1062.72665122 1.73686353 C1057.92200856 1.74104538 1053.1173812 1.73362533 1048.31274229 1.72771102 C1039.89648189 1.71895629 1031.48024583 1.71763433 1023.06398201 1.72121429 C1010.54828836 1.72652393 998.03261825 1.72042332 985.51692716 1.71213136 C961.8619307 1.69689023 938.20694495 1.69518645 914.55194461 1.69765439 C896.28344904 1.69948715 878.01495699 1.69772779 859.74646187 1.69342995 C857.12168573 1.69282755 854.49690959 1.69222635 851.87213345 1.69162634 C847.91680349 1.69071909 843.96147353 1.68981042 840.00614358 1.68889399 C803.22987698 1.68046409 766.45361174 1.67611026 729.67734432 1.68030071 C728.63783075 1.6804178 728.63783075 1.6804178 727.5773169 1.68053725 C719.84987858 1.68141002 712.12244026 1.68233928 704.39500194 1.68328788 C703.69735509 1.68337339 702.99970823 1.6834589 702.28092056 1.683547 C698.0489228 1.68406579 698.0489228 1.68406579 693.81692503 1.68458923 C649.20419513 1.69012362 604.59148593 1.6825862 559.97875977 1.66381836 C548.73926008 1.65909593 537.49976038 1.65441532 526.26026058 1.6499815 C525.56814753 1.64970818 524.87603449 1.64943485 524.16294831 1.64915325 C502.82158416 1.64077812 481.48022172 1.63610193 460.13885593 1.63527393 C459.46853749 1.63524757 458.79821904 1.6352212 458.10758792 1.63519404 C442.73005867 1.63462891 427.35252964 1.63514145 411.97500044 1.63639385 C406.71341646 1.63678919 401.45183248 1.63715074 396.19024849 1.63749123 C394.89472315 1.63758196 393.59919782 1.63767269 392.26441414 1.63776617 C372.71501228 1.63893169 353.165623 1.63228721 333.61622429 1.62167931 C311.37844778 1.60962491 289.14069895 1.60807106 266.90292203 1.62046947 C254.46281942 1.62709509 242.022783 1.62547386 229.58268569 1.61188096 C221.26539405 1.60362714 212.9481519 1.60634616 204.63086427 1.61785623 C199.89700404 1.62410338 195.16327281 1.62573745 190.42942011 1.61399289 C145.80816188 1.51092201 106.18282138 9.15570009 70 37 Z " fill="#FCFCFC" transform="translate(0,0)"/>
<path d="M0 0 C0.91349685 0.00092179 1.82699369 0.00184359 2.76817226 0.00279331 C3.81290203 0.00141865 4.8576318 0.00004398 5.93402004 -0.00137234 C7.08991634 0.00222294 8.24581264 0.00581821 9.43673611 0.00952244 C10.64632488 0.00937641 11.85591366 0.00923038 13.10215664 0.00907993 C16.42846172 0.0096589 19.75470541 0.0146881 23.08099961 0.02165389 C26.55369751 0.02788805 30.02639615 0.02849128 33.49909878 0.0296793 C40.07936014 0.03279243 46.65960497 0.04100557 53.23985904 0.05102879 C60.72945933 0.06219049 68.21906039 0.06770052 75.70866692 0.07272422 C91.11925361 0.0831882 106.52982378 0.1007873 121.94039822 0.12304783 C122.22238064 0.69224949 122.50436306 1.26145115 122.7948904 1.84790134 C124.09122213 4.4615333 125.39078573 7.07354576 126.69039822 9.68554783 C127.13383572 10.58080173 127.57727322 11.47605564 128.03414822 12.39843845 C129.99686368 16.33830112 131.97029797 20.24848926 134.17498684 24.05931187 C136.05738169 27.32606366 137.46835316 30.65425182 138.94039822 34.12304783 C140.23853667 36.7129582 141.62071277 39.25654416 142.99508572 41.80664158 C150.47086449 55.85646713 157.53237365 70.11962159 164.64840603 84.35376072 C166.68420529 88.42546251 168.72557595 92.49434499 170.76821995 96.56261635 C172.3493637 99.71383447 173.92690813 102.86684384 175.5034132 106.02038479 C176.2557014 107.5237814 177.00928645 109.02652981 177.76419353 110.52861309 C178.80864631 112.6077851 179.84806241 114.68939828 180.886199 116.77172947 C181.1977644 117.38924076 181.5093298 118.00675205 181.83033657 118.64297581 C183.94039822 122.89470355 183.94039822 122.89470355 183.94039822 125.12304783 C102.10039822 125.12304783 20.26039822 125.12304783 -64.05960178 125.12304783 C-62.22320361 119.61385332 -60.05957155 114.64899409 -57.55960178 109.43554783 C-57.17546116 108.6202158 -56.79132053 107.80488377 -56.39553928 106.9648447 C-53.5651871 101.03267573 -50.5382371 95.21806106 -47.45828342 89.41333103 C-42.78586777 80.56865858 -38.26494973 71.65540301 -33.81022549 62.69946003 C-32.54677689 60.15948217 -31.28060995 57.62087423 -30.01384068 55.082551 C-27.33928555 49.72219935 -24.66797163 44.36023645 -21.99710178 38.99804783 C-18.86680416 32.71379303 -15.73515688 26.43021768 -12.60019207 20.14828968 C-11.35267782 17.64678161 -10.10757306 15.144084 -8.86256504 12.64132786 C-8.10666461 11.125899 -7.35065383 9.61052517 -6.59451389 8.0952158 C-6.07645428 7.05134708 -6.07645428 7.05134708 -5.54792881 5.98639011 C-2.63373402 0.1573485 -2.63373402 0.1573485 0 0 Z " fill="#0059D7" transform="translate(806.0596017837524,897.8769521713257)"/>
<path d="M0 0 C2.72756127 0.00454418 5.45505597 0.00457466 8.18261719 0 C37.41044277 -0.04896387 66.33031183 1.31295521 95.44000244 3.80554199 C98.56683045 4.07147873 101.69422973 4.3303151 104.82164574 4.58922958 C119.51579133 5.80780253 134.1986412 7.09183062 148.85595703 8.70068359 C150.42868629 8.87203323 150.42868629 8.87203323 152.03318787 9.04684448 C158.04909748 9.7303617 164.00089975 10.62328256 169.96769714 11.64816284 C174.33035354 12.37751478 178.70946678 12.95818269 183.09423828 13.53662109 C214.14642014 17.71548407 245.01680966 22.44168137 275.66455078 29.00537109 C276.78823059 29.24602295 277.9119104 29.4866748 279.06964111 29.73461914 C282.25493692 30.42056199 285.43873667 31.11283941 288.62158203 31.81005859 C289.55781906 32.01496918 290.49405609 32.21987976 291.45866394 32.43099976 C296.31153931 33.51036019 301.08852935 34.70664044 305.85205078 36.13037109 C305.85205078 36.46037109 305.85205078 36.79037109 305.85205078 37.13037109 C294.36406198 36.5632933 282.88301874 35.90011574 271.40283203 35.19287109 C269.99803687 35.10652397 268.59324154 35.0201796 267.18844604 34.93383789 C261.3979041 34.57755246 255.60742 34.22036166 249.81713867 33.85986328 C245.53335402 33.59338313 241.2494186 33.32945231 236.96533203 33.06787109 C236.26587589 33.0251004 235.56641975 32.98232971 234.84576797 32.93826294 C225.06051433 32.34343431 215.27633462 31.88311779 205.47947693 31.52328491 C198.61271977 31.25215476 191.78503871 30.74697388 184.93798828 30.16943359 C166.48377334 28.65238383 147.97860509 28.12445998 129.47705078 27.50537109 C128.0359343 27.45631371 128.0359343 27.45631371 126.56570435 27.40626526 C97.8260677 26.42864439 69.10862486 25.84797582 40.35205078 25.88037109 C39.58483955 25.88077141 38.81762833 25.88117172 38.02716827 25.88158417 C-25.18013969 25.920616 -88.66276921 28.38668169 -150.14794922 44.13037109 C-149.50331726 44.14067856 -148.8586853 44.15098602 -148.19451904 44.16160583 C-141.37895712 44.2712553 -134.56348652 44.38568789 -127.74804688 44.50268555 C-125.21714216 44.54553599 -122.68621767 44.58723667 -120.15527344 44.62768555 C-79.8451601 45.2742438 -79.8451601 45.2742438 -62.39794922 47.50537109 C-61.34502686 47.63548584 -60.29210449 47.76560059 -59.20727539 47.8996582 C-52.12407115 48.80275454 -45.12642163 49.93038329 -38.13623047 51.38427734 C-34.67169315 52.07520937 -31.18940076 52.56388423 -27.69091797 53.05224609 C-4.31032336 56.33267483 18.76365034 60.93766141 41.68054199 66.59661865 C44.03889971 67.17629818 46.39890165 67.74890674 48.75927734 68.3203125 C53.16850612 69.38803562 57.57532538 70.4652417 61.98065186 71.5489502 C63.69210992 71.96935306 65.4040458 72.3878168 67.11651611 72.80407715 C76.04538091 74.98022591 84.87960641 77.33290504 93.61767578 80.18896484 C94.34331726 80.42245132 95.06895874 80.65593781 95.81658936 80.89649963 C100.53313533 82.48512114 104.59896347 84.54297197 108.85205078 87.13037109 C105.75174249 88.09073744 103.45347455 88.12141273 100.25439453 87.64208984 C98.92698242 87.44776367 98.92698242 87.44776367 97.57275391 87.24951172 C96.65429688 87.10707031 95.73583984 86.96462891 94.78955078 86.81787109 C93.89816406 86.68703125 93.00677734 86.55619141 92.08837891 86.42138672 C87.55540959 85.74487291 83.05929561 84.97866698 78.56298828 84.09130859 C71.92855216 82.86528412 65.26575096 82.4777879 58.53955078 82.06787109 C56.08495696 81.91293846 53.6305212 81.75547629 51.17626953 81.59521484 C50.10465576 81.52939209 49.03304199 81.46356934 47.92895508 81.39575195 C44.85205078 81.13037109 44.85205078 81.13037109 42.19628906 80.66210938 C31.92807225 79.02944941 21.40956966 78.73707715 11.03955078 78.06787109 C10.33146523 78.02204643 9.62337967 77.97622177 8.89383698 77.92900848 C-19.41573976 76.11948272 -47.696119 75.73737284 -76.05816269 75.75386429 C-79.24602604 75.75535847 -82.43387222 75.75323747 -85.62173462 75.7507019 C-117.93990768 75.71414396 -117.93990768 75.71414396 -150.14794922 78.13037109 C-151.22305756 78.24705139 -151.22305756 78.24705139 -152.31988525 78.36608887 C-156.44097457 78.81785443 -160.54459402 79.35263932 -164.64794922 79.94287109 C-165.84444092 80.11246338 -167.04093262 80.28205566 -168.27368164 80.45678711 C-199.15574844 84.97218601 -238.15169865 91.11731729 -259.14794922 117.13037109 C-262.52307817 121.80197815 -263.97544071 126.56095568 -265.14794922 132.13037109 C-265.80794922 132.13037109 -266.46794922 132.13037109 -267.14794922 132.13037109 C-267.96632364 130.71708981 -268.77741141 129.29958764 -269.58544922 127.88037109 C-270.03791016 127.09146484 -270.49037109 126.30255859 -270.95654297 125.48974609 C-274.23068835 119.00586476 -274.44610403 110.41685258 -272.35888672 103.52490234 C-271.3722736 101.33703127 -270.29085852 99.24004238 -269.14794922 97.13037109 C-268.55027288 95.78247342 -267.96562944 94.42867391 -267.39794922 93.06787109 C-266.77919922 91.61380859 -266.77919922 91.61380859 -266.14794922 90.13037109 C-267.13794922 90.62537109 -267.13794922 90.62537109 -268.14794922 91.13037109 C-270.62721373 91.49809515 -273.09797733 91.83084485 -275.58544922 92.13037109 C-280.93792115 92.76893929 -280.93792115 92.76893929 -286.14794922 94.13037109 C-288.88660209 94.20088224 -291.59822509 94.22394875 -294.33544922 94.19287109 C-295.08503906 94.18835938 -295.83462891 94.18384766 -296.60693359 94.17919922 C-298.45397305 94.16743464 -300.30097135 94.14949975 -302.14794922 94.13037109 C-302.14794922 93.47037109 -302.14794922 92.81037109 -302.14794922 92.13037109 C-300.74951172 91.03637695 -300.74951172 91.03637695 -298.77294922 89.84521484 C-298.04325928 89.40161621 -297.31356934 88.95801758 -296.56176758 88.50097656 C-295.76520752 88.02805176 -294.96864746 87.55512695 -294.14794922 87.06787109 C-293.33140869 86.57689941 -292.51486816 86.08592773 -291.67358398 85.58007812 C-282.52021911 80.10525112 -273.29050443 74.74567822 -263.79248047 69.88818359 C-256.0949588 65.9429262 -249.185129 61.87212819 -242.35107422 56.51318359 C-235.63323569 51.51576713 -228.37854969 47.33587669 -221.14794922 43.13037109 C-220.4716748 42.73317871 -219.79540039 42.33598633 -219.09863281 41.92675781 C-185.3775131 22.34594406 -145.12814486 13.36282847 -106.9296875 7.55517578 C-104.34227832 7.16004747 -101.75887368 6.7449784 -99.17529297 6.32568359 C-88.23182231 4.60243162 -77.24022649 3.49576564 -66.21044922 2.50537109 C-65.1841037 2.41157669 -65.1841037 2.41157669 -64.13702393 2.31588745 C-42.77312092 0.38481941 -21.44358995 -0.03592582 0 0 Z " fill="#F9F9F9" transform="translate(373.14794921875,424.86962890625)"/>
<path d="M0 0 C0.97833801 -0.00067474 1.95667603 -0.00134949 2.96466064 -0.00204468 C20.23426425 0.01671177 37.12125547 0.90092813 54.25 3.25 C55.50844727 3.42160645 56.76689453 3.59321289 58.06347656 3.77001953 C88.33068802 8.03027231 117.32887524 15.15497555 146.34375 24.578125 C147.0403624 24.80292038 147.73697479 25.02771576 148.45469666 25.25932312 C154.49846484 27.24836071 160.26829004 29.78552982 166.0625 32.40625 C167.33480469 32.98052734 167.33480469 32.98052734 168.6328125 33.56640625 C170.37760417 34.35546875 172.12239583 35.14453125 173.8671875 35.93359375 C177.48115715 37.56482321 181.0905858 39.1834588 184.75 40.7109375 C210.01725117 51.82176 233.59541351 66.992572 254.25 85.25 C255.17425781 86.06339844 256.09851563 86.87679687 257.05078125 87.71484375 C259.12557938 89.55086262 261.19255938 91.39458198 263.25 93.25 C262.92 93.91 262.59 94.57 262.25 95.25 C261.59 94.81171875 260.93 94.3734375 260.25 93.921875 C249.90628854 87.29543485 238.95457117 81.96175932 227.93017578 76.56860352 C225.55901453 75.40203019 223.20227985 74.21116567 220.84765625 73.01171875 C217.95546169 71.56246446 215.06611313 70.35864237 212 69.3125 C208.22057726 67.98403806 204.54697515 66.53810455 200.875 64.9375 C183.63363736 57.71506456 165.51828211 52.99155267 147.50488281 48.14160156 C144.73951179 47.38409069 141.98893659 46.59529043 139.2421875 45.7734375 C128.11985104 42.46053227 116.92498433 40.48958805 105.45898438 38.74267578 C102.18331596 38.23976199 98.9119606 37.71391168 95.640625 37.18359375 C93.42718887 36.83006774 91.21364965 36.47718652 89 36.125 C87.53143555 35.88704712 87.53143555 35.88704712 86.03320312 35.64428711 C82.77674383 35.1376617 79.5167306 34.68562384 76.25 34.25 C75.61559998 34.16032959 74.98119995 34.07065918 74.32757568 33.97827148 C57.87803271 31.71992361 41.3270631 31.94246844 24.76074219 31.98925781 C20.69784112 32.00063251 16.6352025 31.99388216 12.57231045 31.98239231 C-9.87918968 31.92821817 -31.83201804 32.87397791 -54.02661133 36.48217773 C-56.13685155 36.82456351 -58.24886541 37.15405109 -60.36132812 37.48242188 C-66.54050837 37.88762895 -66.54050837 37.88762895 -71.75 40.25 C-74.24786386 40.69864545 -76.74336698 41.1067543 -79.25 41.5 C-87.56526948 42.89040487 -95.46454467 45.04343143 -103.50048828 47.55859375 C-105.83522577 48.27619485 -108.1786359 48.95461695 -110.52734375 49.625 C-124.20099078 53.5568491 -137.6667501 58.18009485 -150.66796875 63.98828125 C-153.75 65.25 -153.75 65.25 -156.75 65.25 C-156.75 65.91 -156.75 66.57 -156.75 67.25 C-157.64976562 67.61609375 -158.54953125 67.9821875 -159.4765625 68.359375 C-185.97965029 79.40847053 -212.48252096 95.13097773 -234.546875 113.58984375 C-244.35562592 120.98118974 -267.85301 119.75151246 -279.75 119.25 C-273.03742574 111.19491089 -265.71120735 104.05892734 -257.75 97.25 C-256.70787415 96.34427806 -255.66624715 95.43798197 -254.625 94.53125 C-197.91816541 45.30516618 -131.15456375 14.18940705 -56.75 3.25 C-55.99396484 3.13672363 -55.23792969 3.02344727 -54.45898438 2.90673828 C-36.42893078 0.25254667 -18.19382885 0.01146319 0 0 Z " fill="#F8F8F8" transform="translate(719.75,248.75)"/>
<path d="M0 0 C362.01 0 724.02 0 1097 0 C1094.23423834 2.76576166 1092.64302803 2.25047594 1088.76654494 2.25135702 C1088.11579498 2.25423493 1087.46504502 2.25711283 1086.79457537 2.26007795 C1084.58839021 2.26735423 1082.38247754 2.26024107 1080.17629433 2.25333309 C1078.58202833 2.25560794 1076.98776339 2.25876115 1075.39350069 2.26271877 C1070.97612507 2.27111079 1066.55883395 2.26693172 1062.14145775 2.26086751 C1057.34919855 2.25647899 1052.55695513 2.26365318 1047.76469934 2.26942402 C1039.35312362 2.27795416 1030.94157193 2.27906224 1022.52999306 2.27541161 C1010.02108891 2.27003567 997.51220903 2.27610034 985.00330761 2.28470039 C963.95929276 2.29890204 942.91528463 2.30421592 921.87126541 2.30496025 C893.12158064 2.3061373 864.37191507 2.32132353 835.62223725 2.34045542 C822.23554134 2.34935645 808.84884505 2.35762746 795.46214867 2.36577702 C794.45734016 2.36639041 794.45734016 2.36639041 793.4322325 2.3670162 C761.53307891 2.38646711 729.63392358 2.40034481 697.73476647 2.41252157 C695.61762966 2.41333028 693.50049285 2.41414314 691.38335603 2.41495672 C659.50131395 2.42718904 627.61927163 2.43784935 595.73722836 2.44644816 C592.20081463 2.44740322 588.6644009 2.44836687 585.12798717 2.44933078 C584.07848256 2.44961678 584.07848256 2.44961678 583.00777583 2.44990855 C575.95233871 2.45183243 568.89690159 2.45376909 561.84146447 2.45571657 C559.72906125 2.45629868 557.61665803 2.45687738 555.5042548 2.45745584 C523.66954283 2.46620084 491.83483486 2.4773549 460.00012779 2.49742985 C458.99569046 2.49806148 458.99569046 2.49806148 457.97096145 2.49870588 C443.92877041 2.50755398 429.88657985 2.51697147 415.84438972 2.52717515 C409.26766264 2.53193667 402.69093547 2.53655217 396.11420822 2.54106331 C394.17265241 2.54239513 394.17265241 2.54239513 392.19187325 2.54375386 C371.36580822 2.55768066 350.53975622 2.56032597 329.71368722 2.55838365 C308.77241544 2.55658737 287.83116983 2.56525151 266.88990678 2.58469205 C254.45208562 2.59588852 242.01432793 2.59870231 229.5765048 2.5894957 C221.26033852 2.58415623 212.94422482 2.58971014 204.6280692 2.60397244 C199.89466209 2.6117766 195.16138251 2.61495475 190.42797704 2.60475319 C145.82076549 2.5161319 106.16568528 10.14540207 70 38 C69.06929688 38.70640625 68.13859375 39.4128125 67.1796875 40.140625 C50.40976123 53.3414416 36.46539927 69.40835436 26 88 C25.60425781 88.69722168 25.20851563 89.39444336 24.80078125 90.11279297 C6.76542984 122.19490845 2.06273402 154.01903518 2.23146364 190.26630811 C2.24714208 195.09677848 2.22747623 199.92713997 2.21259964 204.7575953 C2.19133489 213.19535058 2.19192045 221.63287588 2.20739174 230.07064056 C2.23029449 242.61694401 2.21850358 255.16305322 2.19993604 267.70935538 C2.16965849 288.82112956 2.16702263 309.93282103 2.18042374 331.04460907 C2.19359124 351.93230946 2.19429926 372.81994984 2.17855453 393.70764923 C2.17758063 395.00889049 2.17660672 396.31013176 2.1756033 397.65080457 C2.17059252 404.25979609 2.16536095 410.86878742 2.16004442 417.4777787 C2.14935096 430.91249317 2.14060127 444.34720883 2.13270378 457.7819252 C2.13230723 458.45389991 2.13191068 459.12587462 2.13150211 459.81821221 C2.11241002 492.4533535 2.11533898 525.08848775 2.12011719 557.72363281 C2.12176167 569.039388 2.12330841 580.35514319 2.12445068 591.67089844 C2.12452163 592.37276593 2.12459258 593.07463342 2.12466568 593.79776962 C2.12783391 626.46638254 2.11529107 659.134984 2.09873215 691.80359218 C2.09765654 693.92619267 2.09658768 696.04879315 2.09552019 698.17139364 C2.08843474 712.23876035 2.08107931 726.3061269 2.07354315 740.37349337 C2.05855227 768.36064539 2.04514702 796.3477981 2.0328322 824.33495142 C2.03195326 826.33242605 2.03107115 828.32990068 2.03018903 830.32737531 C1.99157013 918.21824514 1.99266277 1006.10912347 2 1094 C1.34 1094.33 0.68 1094.66 0 1095 C0 733.65 0 372.3 0 0 Z " fill="#EDEDED" transform="translate(0,0)"/>
<path d="M0 0 C312.84 0 625.68 0 948 0 C948 0.99 948 1.98 948 3 C634.83 3 321.66 3 -1 3 C-0.67 2.01 -0.34 1.02 0 0 Z " fill="#DDDCDB" transform="translate(154,1251)"/>
<path d="M0 0 C0.33 0 0.66 0 1 0 C1 311.52 1 623.04 1 944 C0.01 944.33 -0.98 944.66 -2 945 C-2 633.81 -2 322.62 -2 2 C-1.34 2 -0.68 2 0 2 C0 1.34 0 0.68 0 0 Z " fill="#F0F0F0" transform="translate(1253,155)"/>
<path d="M0 0 C2.64895068 2.3623683 4.03878913 4.77899239 5.625 7.9375 C10.40615095 16.8710153 16.58969928 28.12844345 26.77832031 31.60717773 C29.78694637 32.1391425 32.67947297 32.11105494 35.734375 32.09765625 C37.02988281 32.09443359 38.32539063 32.09121094 39.66015625 32.08789062 C41.02343817 32.07953598 42.38671942 32.07107104 43.75 32.0625 C45.12890465 32.05748168 46.50781104 32.05291935 47.88671875 32.04882812 C51.25785659 32.03704093 54.62890628 32.02058635 58 32 C54.66899995 34.70176088 51.35547339 37.08835984 47.6875 39.3125 C40.5082938 43.85030015 33.01619861 48.66126301 30 57 C29.50531363 60.97348378 29.57659963 64.87765783 29.6875 68.875 C29.69716797 69.91269531 29.70683594 70.95039063 29.71679688 72.01953125 C29.80462019 78.07552157 30.22884334 83.99375541 31 90 C28.38954011 87.50735932 26.93817963 85.17488494 25.3125 81.9375 C20.50242244 72.93800005 14.82788541 64.28978903 4.78515625 60.921875 C-6.45243754 58.18495845 -18.73184107 60.18673305 -30 62 C-27.61223319 59.31277729 -25.13555845 57.91843151 -21.9375 56.3125 C-11.89895056 50.95417494 -2.59186472 44.21219828 1.38256836 33.21630859 C2.39812142 29.57091885 2.40098498 26.07393091 2.3125 22.3125 C2.30412109 21.53664551 2.29574219 20.76079102 2.28710938 19.96142578 C2.14766261 13.18849657 1.31584057 6.64969432 0 0 Z " fill="#F9F9F9" transform="translate(247,297)"/>
<path d="M0 0 C1.55088212 2.83148603 2.36753896 5.329931 2.9375 8.5 C3.66583786 12.04846204 4.57101375 14.23978836 7 17 C7 17.66 7 18.32 7 19 C11.3039919 20.74849671 15.64750591 22.3770361 20 24 C17.05378617 25.59586583 14.23772669 26.53595497 11 27.375 C6.03853356 28.85180013 3.47823192 30.27519937 0.953125 34.9296875 C0.25640099 36.30798934 -0.41971548 37.69699076 -1.0703125 39.09765625 C-2 41 -2 41 -4 44 C-4.21914063 43.04738281 -4.43828125 42.09476562 -4.6640625 41.11328125 C-6.29388971 33.31324874 -6.29388971 33.31324874 -10.5625 26.875 C-15.1988691 24.3460714 -19.9755836 22.60030344 -25 21 C-25 20.34 -25 19.68 -25 19 C-23.35451172 18.77957031 -23.35451172 18.77957031 -21.67578125 18.5546875 C-20.22114778 18.32945393 -18.76673113 18.10281689 -17.3125 17.875 C-16.59126953 17.7821875 -15.87003906 17.689375 -15.12695312 17.59375 C-11.24064327 16.95490454 -8.76235713 16.24164575 -6.125 13.21875 C-4.2377658 10.36014526 -2.85676907 7.82966337 -1.6875 4.625 C-1.36136719 3.75101562 -1.03523437 2.87703125 -0.69921875 1.9765625 C-0.46847656 1.32429688 -0.23773437 0.67203125 0 0 Z " fill="#EEEEEE" transform="translate(912,334)"/>
<path d="M0 0 C1.70577072 2.55865609 2.43574141 4.15994763 3.3125 7 C4.36565921 9.86082054 4.84519582 10.87099652 7.25 12.875 C10.44855692 14.18350056 13.65267585 15.14676051 17 16 C14.44134391 17.70577072 12.84005237 18.43574141 10 19.3125 C7.13917946 20.36565921 6.12900348 20.84519582 4.125 23.25 C2.81649944 26.44855692 1.85323949 29.65267585 1 33 C-0.02860906 31.02224525 -0.96177462 29.11183653 -1.68359375 27 C-3.07343202 23.3129679 -4.12825292 21.45285563 -7.70703125 19.59375 C-10.45202905 18.60710124 -13.17902358 17.73929037 -16 17 C-13.49268828 15.70501483 -11.1015572 14.66899476 -8.4375 13.6875 C-4.60117092 11.80421118 -3.66467124 10.85502814 -2 7 C-1.27833809 4.68308546 -0.59940471 2.35151077 0 0 Z " fill="#EEEEEE" transform="translate(216,253)"/>
<path d="M0 0 C-0.33 0.99 -0.66 1.98 -1 3 C3.455 2.505 3.455 2.505 8 2 C5.23052751 3.84631499 3.77921565 4.43978716 0.640625 5.1484375 C-0.65222412 5.44693604 -0.65222412 5.44693604 -1.97119141 5.75146484 C-2.88819824 5.95723145 -3.80520508 6.16299805 -4.75 6.375 C-12.6227423 8.18094829 -20.40514583 10.15468897 -28.1640625 12.3984375 C-31 13 -31 13 -34 12 C-26.19581135 8.21003482 -18.35343155 4.60880496 -10.25 1.5 C-9.57130859 1.23300293 -8.89261719 0.96600586 -8.19335938 0.69091797 C-3.35965452 -1.11988484 -3.35965452 -1.11988484 0 0 Z " fill="#0456CE" transform="translate(215,424)"/>
<path d="M0 0 C6.56560201 0.64656182 12.96903436 1.64764288 19.4375 2.9375 C20.33404297 3.10701172 21.23058594 3.27652344 22.15429688 3.45117188 C23.00958984 3.62068359 23.86488281 3.79019531 24.74609375 3.96484375 C25.90129517 4.19095337 25.90129517 4.19095337 27.07983398 4.42163086 C29 5 29 5 31 7 C20.32011479 6.4699529 9.65627556 5.89918304 -1 5 C-0.67 3.35 -0.34 1.7 0 0 Z " fill="#F1F1F1" transform="translate(648,455)"/>
<path d="M0 0 C8.25 0 16.5 0 25 0 C24.34 0.99 23.68 1.98 23 3 C20.89926147 3.36076355 20.89926147 3.36076355 18.27490234 3.34057617 C17.29403656 3.34034958 16.31317078 3.34012299 15.30258179 3.33988953 C14.24108917 3.32440567 13.17959656 3.30892181 12.0859375 3.29296875 C11.00116119 3.28872391 9.91638489 3.28447906 8.79873657 3.28010559 C5.32390833 3.263273 1.84965382 3.22561189 -1.625 3.1875 C-3.97655414 3.17245911 -6.32811735 3.15876967 -8.6796875 3.14648438 C-14.45332173 3.11335454 -20.22661989 3.06310982 -26 3 C-26 2.67 -26 2.34 -26 2 C-17.42 1.67 -8.84 1.34 0 1 C0 0.67 0 0.34 0 0 Z " fill="#0E0E0E" transform="translate(659,503)"/>
<path d="M0 0 C0.66 0.66 1.32 1.32 2 2 C0.35 2.33 -1.3 2.66 -3 3 C4.92 3.33 12.84 3.66 21 4 C21 4.33 21 4.66 21 5 C7.47 5 -6.06 5 -20 5 C-14.46457085 1.3097139 -6.66125581 -0.85400715 0 0 Z " fill="#484848" transform="translate(240,465)"/>
<path d="M0 0 C0.33 0 0.66 0 1 0 C1.06058594 1.26714844 1.12117188 2.53429687 1.18359375 3.83984375 C1.26808565 5.53906964 1.35272919 7.238288 1.4375 8.9375 C1.47681641 9.76830078 1.51613281 10.59910156 1.55664062 11.45507812 C1.83730769 17.00365014 2.33760065 22.48371637 3 28 C0.5628746 25.64959905 -1.05356242 23.41587871 -2.6875 20.4375 C-3.34298828 19.25994141 -3.34298828 19.25994141 -4.01171875 18.05859375 C-5 16 -5 16 -5 14 C-3.35 14 -1.7 14 0 14 C0 9.38 0 4.76 0 0 Z " fill="#D9DAD9" transform="translate(275,359)"/>
<path d="M0 0 C6.12096691 1.05486051 10.75506674 2.65217026 16 6 C11.78080897 7.25180279 8.03911435 6.67252421 3.75 6.0625 C3.00492187 5.96259766 2.25984375 5.86269531 1.4921875 5.75976562 C-0.33945442 5.51319844 -2.16986251 5.25749609 -4 5 C-3.01 4.34 -2.02 3.68 -1 3 C-0.67 2.01 -0.34 1.02 0 0 Z " fill="#D0D0D0" transform="translate(466,506)"/>
<path d="M0 0 C0.66 0.33 1.32 0.66 2 1 C-1.16735113 8.0894753 -4.48324202 15.07753955 -8 22 C-8.66757788 23.33287734 -9.33454905 24.6660595 -10 26 C-10.66 25.34 -11.32 24.68 -12 24 C-8.04 16.08 -4.08 8.16 0 0 Z " fill="#131314" transform="translate(609,828)"/>
<path d="M0 0 C0.66 0.33 1.32 0.66 2 1 C1.01 2.485 1.01 2.485 0 4 C0.99 4.66 1.98 5.32 3 6 C-1.95 6.66 -6.9 7.32 -12 8 C-9.43564561 5.43564561 -7.53445956 3.98470552 -4.4375 2.25 C-3.65246094 1.80140625 -2.86742187 1.3528125 -2.05859375 0.890625 C-1.37925781 0.59671875 -0.69992188 0.3028125 0 0 Z " fill="#CBCBCB" transform="translate(229,351)"/>
<path d="M0 0 C0.66 0.99 1.32 1.98 2 3 C-0.97 8.61 -3.94 14.22 -7 20 C-7.66 20 -8.32 20 -9 20 C-7.55676531 15.26210835 -5.62773267 11.01141849 -3.375 6.625 C-2.88773438 5.66400391 -2.88773438 5.66400391 -2.390625 4.68359375 C-1.59742593 3.12052499 -0.79922969 1.55999378 0 0 Z " fill="#2B2B2C" transform="translate(723,605)"/>
<path d="M0 0 C0.66 0.66 1.32 1.32 2 2 C0.90033225 3.29549899 -0.20491801 4.58626071 -1.3125 5.875 C-1.92738281 6.59429688 -2.54226563 7.31359375 -3.17578125 8.0546875 C-5 10 -5 10 -8 12 C-8.33 11.01 -8.66 10.02 -9 9 C-6.03 6.03 -3.06 3.06 0 0 Z " fill="#E4E4E4" transform="translate(519,995)"/>
<path d="M0 0 C0 0.66 0 1.32 0 2 C-0.99 2.66 -1.98 3.32 -3 4 C-3.66 4.66 -4.32 5.32 -5 6 C-7.8203125 6.6328125 -7.8203125 6.6328125 -11.125 7.125 C-12.22070312 7.29257812 -13.31640625 7.46015625 -14.4453125 7.6328125 C-15.70988281 7.81457031 -15.70988281 7.81457031 -17 8 C-13.9703348 5.55185821 -10.92450401 3.90547147 -7.375 2.3125 C-6.41335937 1.87550781 -5.45171875 1.43851562 -4.4609375 0.98828125 C-2 0 -2 0 0 0 Z " fill="#074EB4" transform="translate(198,429)"/>
<path d="M0 0 C0 0.99 0 1.98 0 3 C-2.24973447 3.054138 -4.49984383 3.09285491 -6.75 3.125 C-8.00296875 3.14820313 -9.2559375 3.17140625 -10.546875 3.1953125 C-13.72820492 3.01537302 -15.36521896 2.68998582 -18 1 C-16.12528812 0.83012319 -14.25021305 0.66425224 -12.375 0.5 C-11.33085938 0.4071875 -10.28671875 0.314375 -9.2109375 0.21875 C-6.12853212 0.00875645 -3.08834771 -0.03709727 0 0 Z " fill="#E9E9E8" transform="translate(1102,1251)"/>
<path d="M0 0 C0.66 0.99 1.32 1.98 2 3 C0.02 6.96 -1.96 10.92 -4 15 C-4.66 14.67 -5.32 14.34 -6 14 C-4.50829734 9.0276578 -2.39542583 4.58154261 0 0 Z " fill="#1E1E1F" transform="translate(586,873)"/>
<path d="M0 0 C-5.61 2.97 -11.22 5.94 -17 9 C-17.33 8.34 -17.66 7.68 -18 7 C-12.25 4 -12.25 4 -10 4 C-10 3.34 -10 2.68 -10 2 C-8.71211992 1.46987262 -7.41953322 0.9511671 -6.125 0.4375 C-5.40570312 0.14746094 -4.68640625 -0.14257812 -3.9453125 -0.44140625 C-2 -1 -2 -1 0 0 Z " fill="#0D0D0E" transform="translate(557,283)"/>
<path d="M0 0 C6.75479274 -0.7342166 11.18524285 1.72408048 17 5 C16.67 5.66 16.34 6.32 16 7 C10.72 5.02 5.44 3.04 0 1 C0 0.67 0 0.34 0 0 Z " fill="#101010" transform="translate(865,273)"/>
<path d="M0 0 C2.4375 0.375 2.4375 0.375 5 1 C5.33 1.66 5.66 2.32 6 3 C5.67 3.66 5.34 4.32 5 5 C5.66 5.33 6.32 5.66 7 6 C3.7 6 0.4 6 -3 6 C-2.01 5.34 -1.02 4.68 0 4 C0 2.68 0 1.36 0 0 Z " fill="#EAEAEA" transform="translate(460,504)"/>
<path d="M0 0 C-4.66727239 2.63282032 -9.61076854 4.6227538 -15 5 C-15.66 4.34 -16.32 3.68 -17 3 C-14.92085336 2.29994051 -12.83648414 1.61537756 -10.75 0.9375 C-9.58984375 0.55464844 -8.4296875 0.17179687 -7.234375 -0.22265625 C-4.19922915 -0.95211763 -2.84296787 -1.11889082 0 0 Z " fill="#333333" transform="translate(631,293)"/>
<path d="M0 0 C6.93 0.495 6.93 0.495 14 1 C12 3 12 3 8.9609375 3.1953125 C7.77757812 3.17210937 6.59421875 3.14890625 5.375 3.125 C4.18648437 3.10695313 2.99796875 3.08890625 1.7734375 3.0703125 C0.85820312 3.04710937 -0.05703125 3.02390625 -1 3 C-0.67 2.01 -0.34 1.02 0 0 Z " fill="#E8E8E8" transform="translate(154,1251)"/>
<path d="M0 0 C0.66 0.99 1.32 1.98 2 3 C0.88407791 5.00507927 -0.24298712 7.00396096 -1.375 9 C-2.31472656 10.670625 -2.31472656 10.670625 -3.2734375 12.375 C-3.84320312 13.24125 -4.41296875 14.1075 -5 15 C-5.66 15 -6.32 15 -7 15 C-5.45454854 9.52067211 -2.84456788 4.88570819 0 0 Z " fill="#0154C5" transform="translate(563,983)"/>
<path d="M0 0 C0.66 0.33 1.32 0.66 2 1 C1.34 1.66 0.68 2.32 0 3 C4.62 3 9.24 3 14 3 C10.20836973 5.52775351 7.19125969 5.22443035 2.8125 5.125 C2.06291016 5.11597656 1.31332031 5.10695313 0.54101562 5.09765625 C-1.30612654 5.07412578 -3.15310412 5.03825561 -5 5 C-5 4.34 -5 3.68 -5 3 C-2.625 1.3125 -2.625 1.3125 0 0 Z " fill="#B1B0AF" transform="translate(76,514)"/>
<path d="M0 0 C0.66 0.66 1.32 1.32 2 2 C-4.27 1.67 -10.54 1.34 -17 1 C-17 0.67 -17 0.34 -17 0 C-11.26201386 -1.12264946 -5.75400108 -1.20970772 0 0 Z " fill="#B1B0B0" transform="translate(677,460)"/>
<path d="M0 0 C-2.23068972 4.976154 -5.14124616 7.50833136 -10 10 C-10.66 9.67 -11.32 9.34 -12 9 C-10.38050958 7.49405319 -8.75424026 5.99539332 -7.125 4.5 C-6.22007812 3.6646875 -5.31515625 2.829375 -4.3828125 1.96875 C-2 0 -2 0 0 0 Z " fill="#1A1A1B" transform="translate(292,338)"/>
<path d="M0 0 C3.63 0 7.26 0 11 0 C10.01 1.485 10.01 1.485 9 3 C7.0546875 3.29296875 7.0546875 3.29296875 4.875 3.1875 C3.59625 3.125625 2.3175 3.06375 1 3 C0.67 2.01 0.34 1.02 0 0 Z " fill="#F0F0F0" transform="translate(281,330)"/>
<path d="M0 0 C0.66 0.99 1.32 1.98 2 3 C0.35 6.3 -1.3 9.6 -3 13 C-3.66 12.67 -4.32 12.34 -5 12 C-3.68938409 7.76570244 -2.05643741 3.92592596 0 0 Z " fill="#161617" transform="translate(579,887)"/>
<path d="M0 0 C0.53625 0.309375 1.0725 0.61875 1.625 0.9375 C-2.48291365 2.47796762 -6.16066579 1.69746191 -10.375 0.9375 C-10.705 0.2775 -11.035 -0.3825 -11.375 -1.0625 C-7.19546357 -2.45567881 -3.99461785 -1.78706588 0 0 Z " fill="#E0E0E0" transform="translate(480.375,511.0625)"/>
<path d="M0 0 C2.97 0.33 5.94 0.66 9 1 C8.34 1.474375 7.68 1.94875 7 2.4375 C6.01 3.2109375 6.01 3.2109375 5 4 C5 4.33 5 4.66 5 5 C3.02 5 1.04 5 -1 5 C-0.67 3.35 -0.34 1.7 0 0 Z " fill="#D9D9D9" transform="translate(648,455)"/>
<path d="M0 0 C4.59306496 1.4859916 7.43569245 3.85014682 11 7 C10.67 7.66 10.34 8.32 10 9 C6.37 6.69 2.74 4.38 -1 2 C-0.67 1.34 -0.34 0.68 0 0 Z " fill="#C9C9C9" transform="translate(972,335)"/>
<path d="M0 0 C0.33 0.99 0.66 1.98 1 3 C-0.2608012 4.03319813 -1.53403258 5.05124379 -2.8125 6.0625 C-3.87404297 6.91521484 -3.87404297 6.91521484 -4.95703125 7.78515625 C-5.63121094 8.18605469 -6.30539062 8.58695313 -7 9 C-7.99 8.67 -8.98 8.34 -10 8 C-6.7 5.36 -3.4 2.72 0 0 Z " fill="#151516" transform="translate(515,1003)"/>
<path d="M0 0 C0.68359375 1.703125 0.68359375 1.703125 1 4 C-0.21484375 6.359375 -0.21484375 6.359375 -1.9375 8.75 C-2.50339844 9.54921875 -3.06929687 10.3484375 -3.65234375 11.171875 C-4.09707031 11.77515625 -4.54179688 12.3784375 -5 13 C-5.33 12.34 -5.66 11.68 -6 11 C-4.78515625 8.3984375 -4.78515625 8.3984375 -3.0625 5.375 C-2.21365234 3.87066406 -2.21365234 3.87066406 -1.34765625 2.3359375 C-0.90292969 1.56507813 -0.45820312 0.79421875 0 0 Z " fill="#323233" transform="translate(713,625)"/>
<path d="M0 0 C0.66 0.33 1.32 0.66 2 1 C2 1.66 2 2.32 2 3 C-1.55760365 5.61588503 -4.64477147 6.49357808 -9 7 C-6.25604436 4.05278838 -3.61662784 1.80831392 0 0 Z " fill="#282829" transform="translate(137,523)"/>
<path d="M0 0 C2.64 0 5.28 0 8 0 C5.11912454 2.40072955 2.43595166 4.47291037 -1 6 C-0.67 4.02 -0.34 2.04 0 0 Z " fill="#E0E0E0" transform="translate(297,329)"/>
<path d="M0 0 C2 1 2 1 2 1 Z M-2 1 C-1.34 1.33 -0.68 1.66 0 2 C-0.99 3.32 -1.98 4.64 -3 6 C-3.99 5.67 -4.98 5.34 -6 5 C-4.68 3.68 -3.36 2.36 -2 1 Z M-8 6 C-7.34 6.33 -6.68 6.66 -6 7 C-7.65 8.32 -9.3 9.64 -11 11 C-9.125 7.125 -9.125 7.125 -8 6 Z " fill="#EAE9EB" transform="translate(478,333)"/>
<path d="M0 0 C3.10551666 3.10551666 3.81323934 4.89198233 5 9 C4.34 9 3.68 9 3 9 C2.67 10.32 2.34 11.64 2 13 C1.34 8.71 0.68 4.42 0 0 Z " fill="#CDCCCD" transform="translate(247,297)"/>
<path d="M0 0 C1.32 0.33 2.64 0.66 4 1 C4.33 3.97 4.66 6.94 5 10 C2.47671768 7.47671768 1.28600973 6.1655624 0 3 C0 2.01 0 1.02 0 0 Z " fill="#CECECE" transform="translate(273,377)"/>
<path d="M0 0 C-0.33 1.65 -0.66 3.3 -1 5 C-3.64 4.34 -6.28 3.68 -9 3 C-3.2 0 -3.2 0 0 0 Z " fill="#CFCECE" transform="translate(209,267)"/>
<path d="M0 0 C0.33 0.66 0.66 1.32 1 2 C-0.09346881 3.34212062 -1.2001575 4.67347975 -2.3125 6 C-3.23482422 7.11375 -3.23482422 7.11375 -4.17578125 8.25 C-6 10 -6 10 -9 10 C-6.03 6.7 -3.06 3.4 0 0 Z " fill="#DEDDDF" transform="translate(1216,1186)"/>
<path d="M0 0 C0.33 0 0.66 0 1 0 C1.17942163 3.94727588 1.09350689 6.5980513 -1 10 C-1.99 10 -2.98 10 -4 10 C-2.66666667 6.66666667 -1.33333333 3.33333333 0 0 Z " fill="#1D1D1E" transform="translate(596,853)"/>
<path d="M0 0 C0.33 0 0.66 0 1 0 C1 1.65 1 3.3 1 5 C0.01 5.33 -0.98 5.66 -2 6 C-3.20882096 8.00016466 -3.20882096 8.00016466 -4 10 C-4.33 9.34 -4.66 8.68 -5 8 C-4.0390625 6.0546875 -4.0390625 6.0546875 -2.625 3.875 C-2.16351563 3.15054688 -1.70203125 2.42609375 -1.2265625 1.6796875 C-0.82179688 1.12539063 -0.41703125 0.57109375 0 0 Z " fill="#2E2E2F" transform="translate(114,541)"/>
<path d="M0 0 C0.66 0.33 1.32 0.66 2 1 C1.38125 1.2475 0.7625 1.495 0.125 1.75 C-2.15543159 2.81738099 -2.15543159 2.81738099 -2.9375 5.0625 C-3.288125 5.701875 -3.63875 6.34125 -4 7 C-6.625 7.75 -6.625 7.75 -9 8 C-6.14723863 5.06799526 -3.34920216 2.35684596 0 0 Z " fill="#E0DFE0" transform="translate(494,320)"/>
<path d="M0 0 C0.33 0 0.66 0 1 0 C0.67 2.64 0.34 5.28 0 8 C-0.66 8 -1.32 8 -2 8 C-2 8.66 -2 9.32 -2 10 C-2.66 10 -3.32 10 -4 10 C-2.8905928 6.51329166 -1.73662334 3.22515763 0 0 Z " fill="#232325" transform="translate(591,863)"/>
<path d="M0 0 C1 3 1 3 0.22265625 5.04296875 C-0.16019531 5.75066406 -0.54304687 6.45835937 -0.9375 7.1875 C-1.31777344 7.90292969 -1.69804688 8.61835937 -2.08984375 9.35546875 C-2.54037109 10.16951172 -2.54037109 10.16951172 -3 11 C-3.66 10.34 -4.32 9.68 -5 9 C-3.35 6.03 -1.7 3.06 0 0 Z " fill="#0C0C0D" transform="translate(602,843)"/>
<path d="M0 0 C4.42857143 5.14285714 4.42857143 5.14285714 5 9 C4.01 9.495 4.01 9.495 3 10 C1.68 7.03 0.36 4.06 -1 1 C-0.67 0.67 -0.34 0.34 0 0 Z " fill="#0E0E0F" transform="translate(332,544)"/>
<path d="M0 0 C0.66 0.33 1.32 0.66 2 1 C1.09515208 2.15518918 0.1755794 3.29885406 -0.75 4.4375 C-1.26046875 5.07558594 -1.7709375 5.71367188 -2.296875 6.37109375 C-4.19667629 8.18810554 -5.43586908 8.60423197 -8 9 C-7.04270084 7.87411986 -6.08412105 6.7493285 -5.125 5.625 C-4.59132813 4.99851562 -4.05765625 4.37203125 -3.5078125 3.7265625 C-2.38567993 2.44163349 -1.20628025 1.20628025 0 0 Z " fill="#232223" transform="translate(123,532)"/>
<path d="M0 0 C0.33 0 0.66 0 1 0 C0.25 6.625 0.25 6.625 -2 10 C-2.66 10 -3.32 10 -4 10 C-2.8905928 6.51329166 -1.73662334 3.22515763 0 0 Z " fill="#2A2A2B" transform="translate(567,910)"/>
<path d="M0 0 C1.23593891 3.70781672 0.5678132 4.67510253 -0.9375 8.1875 C-1.31777344 9.08855469 -1.69804688 9.98960937 -2.08984375 10.91796875 C-2.54037109 11.94857422 -2.54037109 11.94857422 -3 13 C-3.66 12.01 -4.32 11.02 -5 10 C-3.35 6.7 -1.7 3.4 0 0 Z " fill="#111011" transform="translate(573,899)"/>
<path d="M0 0 C3.36591427 2.72478774 4.44226276 6.06856792 6 10 C5.01 10 4.02 10 3 10 C0 3.375 0 3.375 0 0 Z " fill="#0F0E0F" transform="translate(249,677)"/>
<path d="M0 0 C0.99 0.33 1.98 0.66 3 1 C1.68 3.64 0.36 6.28 -1 9 C-1.66 8.67 -2.32 8.34 -3 8 C-3 7.34 -3 6.68 -3 6 C-2.34 6 -1.68 6 -1 6 C-0.67 4.02 -0.34 2.04 0 0 Z " fill="#100F11" transform="translate(495,777)"/>
<path d="M0 0 C-0.33 1.65 -0.66 3.3 -1 5 C-1.99 4.67 -2.98 4.34 -4 4 C-4 3.34 -4 2.68 -4 2 C-6.64 2 -9.28 2 -12 2 C-12 1.67 -12 1.34 -12 1 C-10.37512529 0.83211627 -8.75009558 0.66573213 -7.125 0.5 C-6.22007813 0.4071875 -5.31515625 0.314375 -4.3828125 0.21875 C-2 0 -2 0 0 0 Z " fill="#474747" transform="translate(107,515)"/>
<path d="M0 0 C0.33 0.99 0.66 1.98 1 3 C-4.2734375 6.22265625 -4.2734375 6.22265625 -6 7 C-6.66 6.67 -7.32 6.34 -8 6 C-5.36 4.02 -2.72 2.04 0 0 Z " fill="#E5E5E6" transform="translate(239,344)"/>
<path d="M0 0 C0.66 1.32 1.32 2.64 2 4 C0.625 6 0.625 6 -1 8 C-1.66 8 -2.32 8 -3 8 C-1.125 2.25 -1.125 2.25 0 0 Z " fill="#014FB9" transform="translate(555,998)"/>
<path d="M0 0 C0.66 0.99 1.32 1.98 2 3 C0.68 5.31 -0.64 7.62 -2 10 C-2.66 10 -3.32 10 -4 10 C-2.8905928 6.51329166 -1.73662334 3.22515763 0 0 Z " fill="#D7D6D8" transform="translate(554,664)"/>
<path d="M0 0 C0.66 0.33 1.32 0.66 2 1 C-1.32307692 4.93846154 -1.32307692 4.93846154 -4.75 5.25 C-5.4925 5.1675 -6.235 5.085 -7 5 C-4.702779 3.25728062 -2.40133271 1.60088848 0 0 Z " fill="#242323" transform="translate(539,326)"/>
<path d="M0 0 C0.66 0.99 1.32 1.98 2 3 C1.34 4.32 0.68 5.64 0 7 C-0.99 7 -1.98 7 -3 7 C-1.125 2.25 -1.125 2.25 0 0 Z " fill="#252427" transform="translate(544,956)"/>
<path d="M0 0 C0.33 0 0.66 0 1 0 C0.25 6.75 0.25 6.75 -2 9 C-3 6 -3 6 -1.5625 2.8125 C-1.046875 1.884375 -0.53125 0.95625 0 0 Z " fill="#202021" transform="translate(554,936)"/>
<path d="M0 0 C0.6875 1.625 0.6875 1.625 1 4 C-0.4375 7.25 -0.4375 7.25 -2 10 C-2.6875 8.375 -2.6875 8.375 -3 6 C-1.5625 2.75 -1.5625 2.75 0 0 Z " fill="#0357CC" transform="translate(798,788)"/>
<path d="M0 0 C1.0326802 2.78823655 1.04509293 3.8677274 0.0625 6.75 C-0.288125 7.4925 -0.63875 8.235 -1 9 C-2.1875 7.3125 -2.1875 7.3125 -3 5 C-1.625 2.25 -1.625 2.25 0 0 Z " fill="#282829" transform="translate(737,579)"/>
<path d="M0 0 C0.99 0 1.98 0 3 0 C1.92598892 2.91517292 1.22189824 4.77810176 -1 7 C-1.625 5.1875 -1.625 5.1875 -2 3 C-1.34 2.01 -0.68 1.02 0 0 Z " fill="#DADADA" transform="translate(737,574)"/>
<path d="M0 0 C0.66 0.99 1.32 1.98 2 3 C1.2884375 3.6496875 1.2884375 3.6496875 0.5625 4.3125 C-1.23686957 6.02309613 -1.23686957 6.02309613 -2 9 C-2.66 9 -3.32 9 -4 9 C-2.80100302 5.9168649 -1.52299523 2.93720508 0 0 Z " fill="#353535" transform="translate(748,558)"/>
<path d="M0 0 C0.99 0.33 1.98 0.66 3 1 C1.35 2.32 -0.3 3.64 -2 5 C-2.99 4.34 -3.98 3.68 -5 3 C-2.6875 1.4375 -2.6875 1.4375 0 0 Z " fill="#1B1B1C" transform="translate(527,333)"/>
</svg>
